<svg xmlns="http://www.w3.org/2000/svg" xmlns:xlink="http://www.w3.org/1999/xlink" width="0" height="0" style="position:absolute">
	
		<symbol id="clock" viewBox="">
			<path d="M149.995 0C67.156 0 0 67.158 0 149.995s67.156 150 149.995 150 150-67.163 150-150S232.834 0 149.995 0zm64.847 178.524H151.25c-.215 0-.415-.052-.628-.06-.213.01-.412.06-.628.06-5.729 0-10.374-4.645-10.374-10.374V62.249c0-5.729 4.645-10.374 10.374-10.374s10.374 4.645 10.374 10.374v95.527h54.47c5.729 0 10.374 4.645 10.374 10.374 0 5.729-4.641 10.374-10.37 10.374z"></path>
		</symbol>
	
		<symbol id="link_part1" viewBox="">
			<path d="M508.986 88.559L423.443 3.016c-4.02-4.02-10.539-4.02-14.559 0L238.727 173.173 113.315 47.761c-16.786-16.787-41.486-17.406-57.452-1.439L21.617 80.568c-16.558 16.559-16.82 43.24-.584 59.477l125.411 125.411L3.016 408.884c-4.022 4.02-4.022 10.539 0 14.559l85.541 85.541c2.01 2.01 4.645 3.015 7.28 3.015s5.27-1.005 7.28-3.015l143.427-143.427 96.031 96.031c.033.034.07.05.103.075a10.256 10.256 0 0 0 3.813 2.376l120.566 41.67a10.295 10.295 0 0 0 13.054-13.208L437.27 373.108a10.277 10.277 0 0 0-2.282-3.646c-.044-.052-.079-.107-.129-.157l-96.031-96.031 170.157-170.155c4.021-4.021 4.021-10.539.001-14.56zM35.592 125.484c-8.069-8.069-7.8-21.971.586-30.357l34.246-34.246c3.844-3.844 8.31-5.47 12.738-5.47 5.74 0 11.418 2.733 15.594 6.908l31.005 31.005-63.163 63.166-31.006-31.006zm174.909 246.999l-33.671-33.671c-4.019-4.02-10.538-4.02-14.559 0-4.022 4.02-4.022 10.539 0 14.559l33.671 33.671-21.842 21.842-15.471-15.471c-4.02-4.02-10.539-4.02-14.559 0-4.022 4.02-4.022 10.539 0 14.559l15.47 15.471-21.84 21.841-33.671-33.671c-4.02-4.02-10.539-4.02-14.559 0-4.022 4.02-4.022 10.539 0 14.559l33.671 33.671-27.3 27.3-70.983-70.979 136.147-136.147 70.981 70.981-21.485 21.485zM81.159 171.05l23.959-23.959 268.697 268.697-23.959 23.959L81.159 171.05zm372.314 308.179l-84.7-29.276 26.766-26.766c.04-.039.084-.072.124-.112.04-.04.073-.084.112-.125l27.6-27.6 30.098 83.879zm-40.454-102.643l-24.643 24.643-268.697-268.698 24.643-24.643 268.697 268.698zm52.286-258.907l-15.471-15.471c-4.02-4.02-10.539-4.02-14.559 0-4.022 4.02-4.022 10.539 0 14.559l15.471 15.471-21.841 21.841-33.671-33.671c-4.02-4.02-10.539-4.02-14.559 0-4.022 4.02-4.022 10.539 0 14.559l33.671 33.671-21.841 21.841-15.471-15.47c-4.019-4.02-10.538-4.02-14.559 0-4.02 4.02-4.022 10.539 0 14.559l15.47 15.471-21.841 21.841-33.671-33.671c-4.02-4.02-10.539-4.02-14.559 0-4.022 4.02-4.022 10.539 0 14.559l33.671 33.671-17.275 17.275-70.981-70.981L416.164 24.857l70.981 70.981-21.84 21.841z"></path>
		</symbol>
	
</svg>
